<?xml version="1.0" encoding="UTF-8" standalone="no"?>
<!-- Created with Inkscape (http://www.inkscape.org/) -->

<svg
   width="324.29926mm"
   height="264.83157mm"
   viewBox="0 0 324.29926 264.83157"
   version="1.1"
   id="svg1"
   xmlns="http://www.w3.org/2000/svg"
   xmlns:svg="http://www.w3.org/2000/svg">
  <defs
     id="defs1">
    <rect
       x="588.45575"
       y="505.31851"
       width="268.897"
       height="77.941154"
       id="rect12" />
    <rect
       x="-241.57742"
       y="164.41962"
       width="256.27414"
       height="78.994904"
       id="rect11" />
    <rect
       x="99.202896"
       y="159.82689"
       width="270.05234"
       height="85.424721"
       id="rect10" />
    <rect
       x="-162.37741"
       y="914.50958"
       width="264.99994"
       height="87.034294"
       id="rect9" />
    <rect
       x="-155.88232"
       y="827.47528"
       width="250.71072"
       height="44.166656"
       id="rect8" />
    <rect
       x="-158.48035"
       y="335.14697"
       width="257.20581"
       height="45.465675"
       id="rect7" />
    <rect
       x="33.774502"
       y="726.15179"
       width="355.9313"
       height="42.867638"
       id="rect6" />
    <rect
       x="-162.37741"
       y="579.36261"
       width="261.10287"
       height="80.539192"
       id="rect5" />
    <rect
       x="-157.18134"
       y="436.47049"
       width="254.60777"
       height="80.539192"
       id="rect4" />
    <marker
       style="overflow:visible"
       id="Triangle"
       refX="0"
       refY="0"
       orient="auto-start-reverse"
       markerWidth="1"
       markerHeight="1"
       viewBox="0 0 1 1"
       preserveAspectRatio="xMidYMid">
      <path
         transform="scale(0.5)"
         style="fill:context-stroke;fill-rule:evenodd;stroke:context-stroke;stroke-width:1pt"
         d="M 5.77,0 -2.88,5 V -5 Z"
         id="path135" />
    </marker>
  </defs>
  <rect
     x="0.386269"
     y="20.858873"
     width="192.37329"
     height="243.58643"
     stroke="#000000"
     stroke-width="0.772538"
     id="rect179"
     style="fill:#00ccff;fill-opacity:0.271295;stroke-linecap:butt;stroke-miterlimit:4" />
  <g
     id="layer1"
     transform="translate(79.98198,-9.6437925)">
    <path
       d="m -9.5101761,25.29253 c -0.104712,0 -0.17721,-0.05357 -0.20943,-0.161099 l -0.4832969,-1.578769 c -0.02014,-0.04309 -0.04833,-0.06443 -0.08055,-0.06443 h -3.963036 c -0.03222,0 -0.05638,0.02134 -0.08055,0.06443 l -0.467188,1.578769 c -0.03222,0.107528 -0.100678,0.161099 -0.209428,0.161099 h -2.045957 c -0.06444,0 -0.112764,-0.01611 -0.144989,-0.04833 -0.03222,-0.04309 -0.03624,-0.101896 -0.01611,-0.177208 l 3.479735,-10.890295 c 0.03223,-0.107528 0.104712,-0.161098 0.209429,-0.161098 h 2.529255 c 0.108745,0 0.177209,0.05357 0.209428,0.161098 l 3.4797389,10.890295 c 0.01202,0.02134 0.0161,0.04833 0.0161,0.08056 0,0.09666 -0.05638,0.144989 -0.177209,0.144989 z m -4.2369049,-3.656947 c -0.0081,0.06443 0.01202,0.09666 0.06443,0.09666 h 2.835344 c 0.06443,0 0.08861,-0.03223 0.06443,-0.09666 l -1.449883,-4.784641 c -0.0081,-0.04309 -0.02417,-0.0592 -0.04833,-0.04833 -0.02014,0 -0.03624,0.0161 -0.04833,0.04833 z m 12.0139598,-2.996442 c 0,0.05357 -0.02416,0.101896 -0.06444,0.144989 -0.03222,0.03223 -0.07652,0.04833 -0.128884,0.04833 h -1.5465509 c -0.05638,0 -0.08055,0.02699 -0.08055,0.08055 v 3.415301 c 0,0.354417 0.06847,0.617411 0.209428,0.789384 0.149023,0.171973 0.386637,0.25776 0.708836,0.25776 h 0.5316269 c 0.05236,0 0.09666,0.02134 0.128884,0.06443 0.04028,0.03223 0.06444,0.07532 0.06444,0.128885 v 1.530439 c 0,0.118001 -0.06444,0.188084 -0.193319,0.20943 -0.4510769,0.02134 -0.7732759,0.03223 -0.9665939,0.03223 -0.8941,0 -1.558633,-0.144989 -1.997628,-0.434968 -0.443023,-0.300852 -0.668562,-0.85906 -0.676616,-1.67543 V 18.91301 c 0,-0.05357 -0.02819,-0.08055 -0.08055,-0.08055 h -0.918265 c -0.05638,0 -0.104711,-0.0161 -0.144989,-0.04833 -0.03223,-0.04309 -0.04833,-0.09142 -0.04833,-0.144989 v -1.433782 c 0,-0.05357 0.0161,-0.09666 0.04833,-0.128884 0.04028,-0.04309 0.08861,-0.06443 0.144989,-0.06443 h 0.918265 c 0.05236,0 0.08055,-0.02699 0.08055,-0.08056 v -1.917077 c 0,-0.05357 0.0161,-0.09666 0.04833,-0.128884 0.04028,-0.04309 0.08861,-0.06443 0.144989,-0.06443 h 1.804309 c 0.05236,0 0.09666,0.02134 0.128884,0.06443 0.04028,0.03223 0.06443,0.07532 0.06443,0.128884 v 1.917078 c 0,0.05357 0.02416,0.08056 0.08055,0.08056 h 1.5465509 c 0.05236,0 0.09666,0.02134 0.128884,0.06443 0.04028,0.03223 0.06444,0.07532 0.06444,0.128884 z m 6.1177341,0 c 0,0.05357 -0.02014,0.101896 -0.06443,0.144989 -0.03223,0.03223 -0.0725,0.04833 -0.128884,0.04833 h -1.546551 c -0.05236,0 -0.08055,0.02699 -0.08055,0.08055 v 3.415301 c 0,0.354417 0.07249,0.617411 0.209429,0.789384 0.153043,0.171973 0.386638,0.25776 0.708835,0.25776 h 0.531618 c 0.05638,0 0.09666,0.02134 0.128884,0.06443 0.0443,0.03223 0.06444,0.07532 0.06444,0.128885 v 1.530439 c 0,0.118001 -0.06444,0.188084 -0.193319,0.20943 -0.451077,0.02134 -0.773276,0.03223 -0.966594,0.03223 -0.890072,0 -1.554605,-0.144989 -1.997626,-0.434968 -0.43899504,-0.300852 -0.66453404,-0.85906 -0.67661604,-1.67543 V 18.91301 c 0,-0.05357 -0.02416,-0.08055 -0.08055,-0.08055 h -0.91826404 c -0.05236,0 -0.100693,-0.0161 -0.144989,-0.04833 -0.03222,-0.04309 -0.04833,-0.09142 -0.04833,-0.144989 v -1.433782 c 0,-0.05357 0.01611,-0.09666 0.04833,-0.128884 0.0443,-0.04309 0.09263,-0.06443 0.144989,-0.06443 h 0.91826404 c 0.05638,0 0.08055,-0.02699 0.08055,-0.08056 v -1.917077 c 0,-0.05357 0.01611,-0.09666 0.04833,-0.128884 0.0443,-0.04309 0.09263,-0.06443 0.144989,-0.06443 H 2.3708749 c 0.05638,0 0.09666,0.02134 0.128884,0.06443 0.0443,0.03223 0.06444,0.07532 0.06444,0.128884 v 1.917078 c 0,0.05357 0.02819,0.08056 0.08055,0.08056 h 1.546551 c 0.05638,0 0.09666,0.02134 0.128884,0.06443 0.0443,0.03223 0.06443,0.07532 0.06443,0.128884 z m 8.5865781,1.659319 c 0.06443,0.407984 0.08861,0.864699 0.06443,1.369342 -0.0081,0.128884 -0.08055,0.193319 -0.209429,0.193319 H 7.8482329 c -0.06443,0 -0.08457,0.02699 -0.06443,0.08055 0.03222,0.214665 0.09262,0.429731 0.177208,0.644396 0.281923,0.601302 0.8497974,0.902155 1.7076494,0.902155 0.6886987,-0.01081 1.2324067,-0.289978 1.6270997,-0.837714 0.0443,-0.06444 0.09263,-0.09666 0.14499,-0.09666 0.03222,0 0.07249,0.02134 0.112764,0.06443 l 1.159913,1.143803 c 0.05638,0.05357 0.08055,0.101896 0.08055,0.144989 0,0.02134 -0.02014,0.06444 -0.06443,0.128885 -0.354417,0.440202 -0.809522,0.78415 -1.369341,1.031033 -0.555792,0.236414 -1.167969,0.354417 -1.8365287,0.354417 -0.922292,0 -1.7076494,-0.209428 -2.3520464,-0.628286 -0.632314,-0.418856 -1.087419,-1.004049 -1.369342,-1.755979 -0.225539,-0.536863 -0.338307,-1.240463 -0.338307,-2.110398 0,-0.590831 0.08055,-1.111583 0.241648,-1.56266 0.249704,-0.762402 0.676616,-1.369343 1.288793,-1.820419 0.624258,-0.451077 1.361285,-0.676616 2.2070554,-0.676616 1.0753367,0 1.9331887,0.311324 2.5775857,0.934374 0.656477,0.623051 1.055198,1.455127 1.192131,2.497035 z m -3.7536077,-1.466 c -0.6766164,0 -1.1196374,0.316962 -1.3371214,0.950483 -0.04028,0.139753 -0.08055,0.311324 -0.112764,0.515517 0,0.05357 0.02819,0.08056 0.08055,0.08056 H 10.63526 c 0.06443,0 0.08861,-0.02699 0.06443,-0.08056 C 10.64734,19.987136 10.61914,19.836509 10.61914,19.847384 10.52248,19.525185 10.353326,19.2783 10.103624,19.106327 9.8700293,18.923883 9.5719973,18.83246 9.2175783,18.83246 Z m 9.5370627,-1.949299 c 0.857852,0 1.550577,0.262994 2.078176,0.789386 0.527601,0.52639 0.789386,1.240461 0.789386,2.142616 v 5.284048 c 0,0.05357 -0.02014,0.101896 -0.06443,0.144989 -0.03222,0.03222 -0.07652,0.04833 -0.128885,0.04833 h -1.884858 c -0.05236,0 -0.100693,-0.01611 -0.144989,-0.04833 -0.03222,-0.04309 -0.04833,-0.09142 -0.04833,-0.144989 v -4.81686 c 0,-0.429733 -0.12485,-0.778512 -0.370528,-1.047144 -0.237621,-0.268633 -0.551764,-0.402747 -0.950483,-0.402747 -0.398721,0 -0.72092,0.13412 -0.966595,0.402747 -0.237622,0.268632 -0.354418,0.617411 -0.354418,1.047144 v 4.81686 c 0,0.05357 -0.02014,0.101896 -0.06444,0.144989 -0.03222,0.03222 -0.07652,0.04833 -0.128884,0.04833 H 14.63051 c -0.05236,0 -0.100693,-0.01611 -0.144989,-0.04833 -0.03222,-0.04309 -0.04833,-0.09142 -0.04833,-0.144989 v -7.893852 c 0,-0.05357 0.0161,-0.09666 0.04833,-0.128884 0.0443,-0.04309 0.09263,-0.06443 0.144989,-0.06443 h 1.884859 c 0.05236,0 0.09666,0.02134 0.128884,0.06443 0.0443,0.03223 0.06444,0.07532 0.06444,0.128884 v 0.563847 c 0,0.03223 0.01202,0.05357 0.03222,0.06443 0.02014,0.01081 0.03624,0.0052 0.04833,-0.0161 0.438995,-0.623051 1.095474,-0.934375 1.965409,-0.934375 z m 9.243056,1.75598 c 0,0.05357 -0.02014,0.101896 -0.06443,0.144989 -0.03223,0.03223 -0.0725,0.04833 -0.128884,0.04833 h -1.546551 c -0.05236,0 -0.08055,0.02699 -0.08055,0.08055 v 3.415301 c 0,0.354417 0.0725,0.617411 0.209428,0.789384 0.153044,0.171973 0.386637,0.25776 0.708836,0.25776 h 0.531627 c 0.05638,0 0.09666,0.02134 0.128884,0.06443 0.0443,0.03223 0.06444,0.07532 0.06444,0.128885 v 1.530439 c 0,0.118001 -0.06444,0.188084 -0.193319,0.20943 -0.451077,0.02134 -0.773275,0.03223 -0.966594,0.03223 -0.890072,0 -1.554606,-0.144989 -1.997628,-0.434968 -0.438995,-0.300852 -0.664534,-0.85906 -0.676616,-1.67543 V 18.91301 c 0,-0.05357 -0.02417,-0.08055 -0.08055,-0.08055 H 22.98753 c -0.05236,0 -0.100693,-0.0161 -0.144989,-0.04833 -0.03223,-0.04309 -0.04833,-0.09142 -0.04833,-0.144989 v -1.433782 c 0,-0.05357 0.0161,-0.09666 0.04833,-0.128884 0.0443,-0.04309 0.09263,-0.06443 0.144989,-0.06443 h 0.918265 c 0.05638,0 0.08055,-0.02699 0.08055,-0.08056 v -1.917077 c 0,-0.05357 0.0161,-0.09666 0.04833,-0.128884 0.0443,-0.04309 0.09263,-0.06443 0.144989,-0.06443 h 1.804309 c 0.05638,0 0.09666,0.02134 0.128884,0.06443 0.0443,0.03223 0.06444,0.07532 0.06444,0.128884 v 1.917078 c 0,0.05357 0.02819,0.08056 0.08055,0.08056 h 1.546551 c 0.05638,0 0.09666,0.02134 0.128884,0.06443 0.0443,0.03223 0.06443,0.07532 0.06443,0.128884 z m 2.593694,-2.561474 c -0.3665,0 -0.672589,-0.118001 -0.918264,-0.354419 -0.237622,-0.246884 -0.354419,-0.552973 -0.354419,-0.918265 0,-0.375763 0.116798,-0.68185 0.354419,-0.918264 0.237621,-0.236412 0.543708,-0.354417 0.918264,-0.354417 0.374555,0 0.680642,0.118 0.918265,0.354417 0.237621,0.236414 0.354417,0.542501 0.354417,0.918264 0,0.365292 -0.12485,0.671381 -0.370528,0.918265 -0.237621,0.236413 -0.535655,0.354419 -0.902154,0.354419 z m -0.966594,9.214863 c -0.05236,0 -0.100693,-0.01611 -0.144989,-0.04833 -0.03222,-0.04309 -0.04833,-0.09142 -0.04833,-0.144989 V 17.18925 c 0,-0.05357 0.0161,-0.09666 0.04833,-0.128884 0.0443,-0.04309 0.09263,-0.06443 0.144989,-0.06443 h 1.884859 c 0.05236,0 0.09666,0.02134 0.128884,0.06443 0.0443,0.03223 0.06444,0.07532 0.06444,0.128884 v 7.909961 c 0,0.05357 -0.02014,0.101896 -0.06444,0.144989 -0.03222,0.03222 -0.07652,0.04833 -0.128884,0.04833 z m 7.507214,0.128884 c -0.902155,0 -1.67543,-0.236412 -2.319826,-0.708834 -0.644395,-0.472423 -1.087418,-1.11682 -1.321011,-1.93319 -0.153045,-0.504643 -0.225539,-1.05238 -0.225539,-1.643211 0,-0.633521 0.0725,-1.203006 0.225539,-1.707649 0.245676,-0.794621 0.692725,-1.417671 1.337121,-1.868749 0.644397,-0.451077 1.417672,-0.676616 2.319825,-0.676616 0.877991,0 1.631129,0.225539 2.255387,0.676616 0.620231,0.440204 1.063254,1.058019 1.321012,1.85264 0.169154,0.536861 0.257759,1.100709 0.257759,1.69154 0,0.579956 -0.07652,1.122456 -0.225539,1.627099 -0.237621,0.837716 -0.676616,1.498222 -1.321011,1.98152 -0.636342,0.472422 -1.401562,0.708834 -2.303717,0.708834 z m 0,-1.949297 c 0.354417,0 0.652451,-0.107528 0.902155,-0.322199 0.245676,-0.214665 0.422884,-0.510281 0.531627,-0.886044 0.08457,-0.343544 0.128884,-0.719711 0.128884,-1.127695 0,-0.451076 -0.0443,-0.832478 -0.128884,-1.143802 -0.120832,-0.365292 -0.302062,-0.649632 -0.547738,-0.853825 -0.249702,-0.204193 -0.547736,-0.306088 -0.902153,-0.306088 -0.366501,0 -0.672588,0.101896 -0.918265,0.306088 -0.237621,0.204193 -0.410802,0.488533 -0.515517,0.853825 -0.08861,0.257758 -0.128884,0.63916 -0.128884,1.143802 0,0.483297 0.03624,0.859062 0.112764,1.127695 0.104712,0.375763 0.281923,0.671379 0.531627,0.886044 0.257758,0.214665 0.567873,0.322199 0.934373,0.322199 z m 9.625667,-6.588952 c 0.857847,0 1.550577,0.262994 2.078177,0.789386 0.5276,0.526391 0.78939,1.240462 0.78939,2.142617 v 5.284049 c 0,0.05357 -0.0201,0.101896 -0.0644,0.144989 -0.0322,0.03223 -0.0765,0.04833 -0.12888,0.04833 h -1.88486 c -0.0524,0 -0.100696,-0.0161 -0.144991,-0.04833 -0.03223,-0.04309 -0.04833,-0.09142 -0.04833,-0.144989 v -4.816866 c 0,-0.429733 -0.124851,-0.778512 -0.370528,-1.047144 -0.237621,-0.268633 -0.551764,-0.402747 -0.950484,-0.402747 -0.39872,0 -0.720917,0.13412 -0.966594,0.402747 -0.237621,0.268632 -0.354419,0.617411 -0.354419,1.047144 v 4.816862 c 0,0.05357 -0.02014,0.101895 -0.06443,0.144989 -0.03222,0.03223 -0.07652,0.04833 -0.128884,0.04833 h -1.884859 c -0.05235,0 -0.100678,-0.0161 -0.144989,-0.04833 -0.03222,-0.04309 -0.04833,-0.09142 -0.04833,-0.144989 v -7.893854 c 0,-0.05357 0.01611,-0.09666 0.04833,-0.128884 0.04431,-0.04309 0.09264,-0.06443 0.144989,-0.06443 h 1.884859 c 0.05236,0 0.09666,0.02134 0.128884,0.06443 0.0443,0.03223 0.06443,0.07532 0.06443,0.128884 v 0.563847 c 0,0.03223 0.01203,0.05357 0.03223,0.06443 0.02014,0.01081 0.03624,0.0052 0.04833,-0.0161 0.438995,-0.623051 1.095474,-0.934375 1.965409,-0.934375 z M 60.80552,19.47686 c 0.0564,0 0.0967,0.02134 0.12888,0.06443 0.0443,0.03223 0.0644,0.07532 0.0644,0.128884 v 1.56266 c 0,0.05357 -0.0201,0.101896 -0.0644,0.144989 -0.0322,0.03223 -0.0725,0.04833 -0.12888,0.04833 h -2.20706 c -0.0524,0 -0.0805,0.02699 -0.0805,0.08056 v 2.174837 c 0,0.05357 -0.0201,0.101896 -0.0644,0.14499 -0.0322,0.03222 -0.0725,0.04833 -0.12888,0.04833 h -1.54655 c -0.0524,0 -0.1007,-0.01611 -0.14499,-0.04833 -0.0322,-0.04309 -0.0483,-0.09142 -0.0483,-0.14499 v -2.174837 c 0,-0.05357 -0.0242,-0.08056 -0.0806,-0.08056 h -2.20705 c -0.0524,0 -0.1007,-0.0161 -0.14499,-0.04833 -0.0322,-0.04309 -0.0483,-0.09142 -0.0483,-0.144989 v -1.56266 c 0,-0.05357 0.0161,-0.09666 0.0483,-0.128884 0.0443,-0.04309 0.0926,-0.06443 0.14499,-0.06443 h 2.20705 c 0.0564,0 0.0806,-0.02699 0.0806,-0.08055 v -2.223171 c 0,-0.05357 0.0161,-0.09666 0.0483,-0.128884 0.0443,-0.04309 0.0926,-0.06444 0.14499,-0.06444 h 1.54655 c 0.0564,0 0.0967,0.02134 0.12888,0.06444 0.0443,0.03222 0.0644,0.07532 0.0644,0.128884 v 2.223166 c 0,0.05357 0.0282,0.08055 0.0805,0.08055 z m 12.702651,-3.705278 c 0,0.05357 -0.0201,0.101896 -0.0644,0.144989 -0.0322,0.03223 -0.0725,0.04833 -0.12889,0.04833 h -5.284039 c -0.0524,0 -0.0806,0.02699 -0.0806,0.08055 v 2.497036 c 0,0.05357 0.0282,0.08055 0.0806,0.08055 h 3.463629 c 0.0564,0 0.0967,0.02134 0.12888,0.06443 0.0443,0.03223 0.0644,0.07532 0.0644,0.128884 v 1.562661 c 0,0.05357 -0.0201,0.101896 -0.0644,0.144989 -0.0322,0.03223 -0.0725,0.04833 -0.12888,0.04833 h -3.463629 c -0.0524,0 -0.0806,0.02699 -0.0806,0.08056 v 2.609805 c 0,0.05357 0.0282,0.08055 0.0806,0.08055 h 5.284039 c 0.0564,0 0.0967,0.02134 0.12889,0.06443 0.0443,0.03223 0.0644,0.07532 0.0644,0.128884 v 1.562662 c 0,0.05357 -0.0201,0.101895 -0.0644,0.144989 -0.0322,0.03223 -0.0725,0.04833 -0.12889,0.04833 h -7.442769 c -0.0524,0 -0.10069,-0.0161 -0.14499,-0.04833 -0.0322,-0.04309 -0.0483,-0.09142 -0.0483,-0.144989 V 14.208943 c 0,-0.05357 0.0161,-0.09666 0.0483,-0.128884 0.0443,-0.04309 0.0926,-0.06443 0.14499,-0.06443 h 7.442769 c 0.0564,0 0.0967,0.02134 0.12889,0.06443 0.0443,0.03223 0.0644,0.07532 0.0644,0.128884 z m 1.6271,9.520954 c -0.0524,0 -0.10069,-0.0161 -0.14498,-0.04833 -0.0322,-0.04309 -0.0483,-0.09142 -0.0483,-0.144989 V 14.208922 c 0,-0.05357 0.0161,-0.09666 0.0483,-0.128884 0.0443,-0.04309 0.0926,-0.06443 0.14498,-0.06443 h 1.88486 c 0.0564,0 0.0967,0.02134 0.12889,0.06443 0.0443,0.03223 0.0644,0.07532 0.0644,0.128884 v 10.890295 c 0,0.05357 -0.0201,0.101896 -0.0644,0.144989 -0.0322,0.03223 -0.0725,0.04833 -0.12889,0.04833 z m 11.07153,-4.994071 c 0.0644,0.407983 0.0846,0.864698 0.0644,1.369341 -0.0122,0.128885 -0.0805,0.193319 -0.20942,0.193319 h -4.97796 c -0.0644,0 -0.0846,0.02699 -0.0644,0.08055 0.0322,0.214665 0.0926,0.429731 0.17721,0.644396 0.2779,0.601302 0.8498,0.902155 1.70765,0.902155 0.6887,-0.01081 1.22838,-0.289979 1.62709,-0.837715 0.0443,-0.06443 0.0927,-0.09666 0.14491,-0.09666 0.0323,0 0.0685,0.02134 0.1128,0.06443 l 1.15991,1.143804 c 0.0524,0.05357 0.0805,0.101896 0.0805,0.144989 0,0.02134 -0.0201,0.06443 -0.0644,0.128884 -0.35442,0.440204 -0.80952,0.78415 -1.36934,1.031033 -0.55982,0.236414 -1.172,0.354419 -1.83653,0.354419 -0.92228,0 -1.70765,-0.209429 -2.35204,-0.628286 -0.63232,-0.418858 -1.09145,-1.004049 -1.36934,-1.755979 -0.22554,-0.536863 -0.33831,-1.240463 -0.33831,-2.110398 0,-0.590831 0.0806,-1.111583 0.24165,-1.56266 0.24567,-0.762402 0.67661,-1.369342 1.28879,-1.820419 0.62426,-0.451077 1.35725,-0.676616 2.20705,-0.676616 1.07534,0 1.93319,0.311324 2.57759,0.934374 0.65648,0.623051 1.05117,1.455127 1.19213,2.497035 z m -3.75361,-1.466005 c -0.67662,0 -1.12365,0.316962 -1.33711,0.950483 -0.0443,0.139753 -0.0806,0.311324 -0.11277,0.515517 0,0.05357 0.0282,0.08056 0.0806,0.08056 h 2.787 c 0.0644,0 0.0846,-0.02699 0.0644,-0.08056 -0.0524,-0.311324 -0.0805,-0.461951 -0.0805,-0.451076 -0.0967,-0.322199 -0.26984,-0.569084 -0.51553,-0.741057 -0.23761,-0.182444 -0.53162,-0.273867 -0.88604,-0.273867 z m 14.40225,-1.949299 c 0.83773,0 1.49017,0.252523 1.965408,0.757166 0.47122,0.504642 0.70885,1.213479 0.70885,2.126507 v 5.332379 c 0,0.05357 -0.0242,0.101895 -0.0644,0.144989 -0.0323,0.03223 -0.0766,0.04833 -0.12893,0.04833 h -1.884858 c -0.0563,0 -0.10473,-0.0161 -0.14491,-0.04833 -0.0323,-0.04309 -0.0484,-0.09142 -0.0484,-0.144989 V 20.26624 c 0,-0.440202 -0.1128,-0.789385 -0.33831,-1.047143 -0.22554,-0.257759 -0.52761,-0.386637 -0.90216,-0.386637 -0.37858,0 -0.68467,0.128884 -0.91826,0.386637 -0.23762,0.257758 -0.35442,0.601303 -0.35442,1.031034 v 4.849082 c 0,0.05357 -0.0242,0.101895 -0.0644,0.144989 -0.0323,0.03223 -0.0766,0.04833 -0.12893,0.04833 h -1.86876 c -0.0563,0 -0.10472,-0.0161 -0.14506,-0.04833 -0.0323,-0.04309 -0.0484,-0.09142 -0.0484,-0.144989 V 20.26624 c 0,-0.429731 -0.12086,-0.773275 -0.35441,-1.031033 -0.23763,-0.268633 -0.54371,-0.402747 -0.91827,-0.402747 -0.34636,0 -0.63633,0.101896 -0.86993,0.306087 -0.22554,0.204194 -0.36248,0.488534 -0.40276,0.853826 v 5.10684 c 0,0.05357 -0.0242,0.101895 -0.0644,0.144989 -0.0323,0.03223 -0.0766,0.04833 -0.12893,0.04833 h -1.88486 c -0.0563,0 -0.10472,-0.0161 -0.14491,-0.04833 -0.0323,-0.04309 -0.0484,-0.09142 -0.0484,-0.144989 v -7.893854 c 0,-0.05357 0.0161,-0.09666 0.0484,-0.128884 0.0403,-0.04309 0.0886,-0.06443 0.14491,-0.06443 h 1.88486 c 0.0524,0 0.0967,0.02134 0.12893,0.06443 0.0403,0.03223 0.0644,0.07532 0.0644,0.128884 v 0.628286 c 0,0.03223 0.008,0.05357 0.0323,0.06443 0.0201,0.01081 0.0403,0 0.0644,-0.03222 0.439,-0.65527 1.11965,-0.982705 2.04597,-0.982705 0.53564,0 1.00284,0.112765 1.40156,0.338308 0.40678,0.225539 0.71689,0.547738 0.93437,0.966594 0.0323,0.06443 0.0685,0.06443 0.11279,0 0.2336,-0.440202 0.55177,-0.768039 0.95049,-0.982703 0.40678,-0.214665 0.86189,-0.322199 1.36934,-0.322199 z m 11.550799,3.415299 c 0.0644,0.407984 0.0846,0.864699 0.0644,1.369342 -0.0122,0.128884 -0.0805,0.193319 -0.20942,0.193319 h -4.97796 c -0.0644,0 -0.0886,0.02699 -0.0644,0.08055 0.0323,0.214665 0.0886,0.429731 0.17721,0.644396 0.27789,0.601302 0.84576,0.902155 1.70765,0.902155 0.68466,-0.01081 1.22838,-0.289978 1.6271,-0.837714 0.0403,-0.06444 0.0886,-0.09666 0.14507,-0.09666 0.0323,0 0.0685,0.02134 0.11279,0.06443 l 1.15991,1.143803 c 0.0524,0.05357 0.0805,0.101896 0.0805,0.144989 0,0.02134 -0.0242,0.06444 -0.0644,0.128885 -0.35443,0.440203 -0.81355,0.78415 -1.36935,1.031033 -0.55982,0.236414 -1.17199,0.354419 -1.83653,0.354419 -0.92632,0 -1.70765,-0.20943 -2.35204,-0.628286 -0.63633,-0.418858 -1.09144,-1.00405 -1.36935,-1.755979 -0.22553,-0.536863 -0.33831,-1.240463 -0.33831,-2.110398 0,-0.590831 0.0805,-1.111584 0.24165,-1.56266 0.24568,-0.762403 0.67662,-1.369343 1.2888,-1.82042 0.62023,-0.451077 1.35727,-0.676616 2.20706,-0.676616 1.07131,0 1.93319,0.311324 2.57758,0.934374 0.65246,0.623052 1.05117,1.455128 1.19214,2.497035 z m -3.7536,-1.466 c -0.67661,0 -1.12366,0.316962 -1.33712,0.950483 -0.0443,0.139753 -0.0805,0.311324 -0.1128,0.515517 0,0.05357 0.0242,0.08056 0.0805,0.08056 h 2.78702 c 0.0644,0 0.0846,-0.02699 0.0644,-0.08056 -0.0563,-0.311324 -0.0805,-0.461951 -0.0805,-0.451076 -0.0967,-0.322199 -0.26984,-0.569084 -0.51552,-0.741057 -0.23762,-0.182444 -0.53163,-0.273867 -0.88604,-0.273867 z m 9.53304,-1.949299 c 0.86187,0 1.55461,0.262994 2.07818,0.789386 0.52759,0.52639 0.78938,1.240461 0.78938,2.142616 v 5.28405 c 0,0.05357 -0.0201,0.101895 -0.0644,0.144989 -0.0323,0.03223 -0.0725,0.04833 -0.12893,0.04833 h -1.88486 c -0.0524,0 -0.10077,-0.0161 -0.14506,-0.04833 -0.0323,-0.04309 -0.0483,-0.09142 -0.0483,-0.144989 v -4.816862 c 0,-0.429733 -0.12086,-0.778512 -0.37053,-1.047144 -0.23359,-0.268633 -0.55176,-0.402747 -0.95047,-0.402747 -0.39471,0 -0.7169,0.13412 -0.9666,0.402747 -0.23359,0.268632 -0.35442,0.617411 -0.35442,1.047144 v 4.816862 c 0,0.05357 -0.0201,0.101895 -0.0644,0.144989 -0.0323,0.03223 -0.0725,0.04833 -0.12893,0.04833 h -1.88486 c -0.0524,0 -0.10077,-0.0161 -0.14507,-0.04833 -0.0323,-0.04309 -0.0484,-0.09142 -0.0484,-0.144989 v -7.893854 c 0,-0.05357 0.0161,-0.09666 0.0484,-0.128884 0.0443,-0.04309 0.0927,-0.06443 0.14507,-0.06443 h 1.88486 c 0.0563,0 0.0967,0.02134 0.12893,0.06443 0.0443,0.03223 0.0644,0.07532 0.0644,0.128884 v 0.563847 c 0,0.03223 0.0122,0.05357 0.0323,0.06443 0.0242,0.01081 0.0403,0.0052 0.0482,-0.0161 0.44302,-0.623051 1.09548,-0.934375 1.96541,-0.934375 z m 9.24708,1.75598 c 0,0.05357 -0.0242,0.101896 -0.0644,0.144989 -0.0323,0.03223 -0.0766,0.04833 -0.12893,0.04833 h -1.54655 c -0.0563,0 -0.0805,0.02699 -0.0805,0.08055 v 3.415301 c 0,0.354417 0.0685,0.617411 0.20942,0.789384 0.14902,0.171973 0.38664,0.25776 0.70884,0.25776 h 0.53163 c 0.0524,0 0.0967,0.02134 0.12893,0.06443 0.0403,0.03223 0.0644,0.07532 0.0644,0.128885 v 1.530441 c 0,0.118 -0.0644,0.188082 -0.19332,0.209428 -0.45107,0.02134 -0.77328,0.03223 -0.9666,0.03223 -0.8941,0 -1.55863,-0.144989 -1.99762,-0.434968 -0.44303,-0.300852 -0.66856,-0.85906 -0.67661,-1.675428 v -4.317457 c 0,-0.05357 -0.0282,-0.08056 -0.0805,-0.08056 h -0.91826 c -0.0563,0 -0.10473,-0.0161 -0.14507,-0.04833 -0.0323,-0.04309 -0.0484,-0.09142 -0.0484,-0.144989 v -1.433781 c 0,-0.05357 0.0161,-0.09666 0.0484,-0.128884 0.0403,-0.04309 0.0886,-0.06443 0.14507,-0.06443 h 0.91826 c 0.0524,0 0.0805,-0.02699 0.0805,-0.08056 v -1.917076 c 0,-0.05357 0.0161,-0.09666 0.0484,-0.128885 0.0403,-0.04309 0.0886,-0.06443 0.14507,-0.06443 h 1.8043 c 0.0524,0 0.0967,0.02134 0.12893,0.06443 0.0403,0.03223 0.0644,0.07532 0.0644,0.128885 v 1.917077 c 0,0.05357 0.0242,0.08056 0.0805,0.08056 h 1.54655 c 0.0524,0 0.0967,0.02134 0.12893,0.06443 0.0403,0.03223 0.0644,0.07532 0.0644,0.128884 z m 1.07936,2.867562 c -0.0524,0 -0.10062,-0.0161 -0.14491,-0.04833 -0.0323,-0.04309 -0.0484,-0.09142 -0.0484,-0.144989 v -1.56266 c 0,-0.05357 0.0161,-0.09666 0.0484,-0.128884 0.0443,-0.04309 0.0927,-0.06443 0.14491,-0.06443 h 5.26794 c 0.0524,0 0.0967,0.02134 0.12893,0.06443 0.0443,0.03223 0.0644,0.07532 0.0644,0.128884 v 1.56266 c 0,0.05357 -0.0201,0.101896 -0.0644,0.144989 -0.0323,0.03223 -0.0766,0.04833 -0.12893,0.04833 z m 8.37313,3.785828 c -0.11676,0 -0.19332,-0.05357 -0.22555,-0.1611 l -2.31982,-7.909962 -0.0161,-0.06443 c 0,-0.107528 0.0604,-0.161099 0.17721,-0.161099 h 1.9493 c 0.12086,0 0.19332,0.05357 0.22554,0.161099 l 1.15991,4.86519 c 0.0122,0.03223 0.0282,0.04833 0.0483,0.04833 0.0242,0 0.0403,-0.0161 0.0482,-0.04833 l 1.20824,-4.86519 c 0.0323,-0.107528 0.10869,-0.161099 0.22555,-0.161099 h 1.69154 c 0.12086,0 0.19332,0.05357 0.22553,0.161099 l 1.27269,4.8813 c 0.0122,0.03223 0.0282,0.04833 0.0484,0.04833 0.0242,0 0.0403,-0.0161 0.0483,-0.04833 l 1.25657,-4.8813 c 0.0323,-0.107528 0.10868,-0.161099 0.22553,-0.161099 l 1.93319,0.03223 c 0.0644,0 0.10868,0.02134 0.12893,0.06443 0.0323,0.03223 0.0443,0.08056 0.0323,0.144989 l -2.35204,7.893852 c -0.0323,0.107528 -0.10062,0.1611 -0.20944,0.1611 h -1.94929 c -0.11675,0 -0.19332,-0.05357 -0.22554,-0.1611 l -1.24046,-4.317454 c -0.008,-0.03223 -0.0242,-0.04833 -0.0482,-0.04833 -0.0201,0 -0.0362,0.0161 -0.0484,0.04833 l -1.09547,4.317454 c -0.0323,0.107528 -0.10473,0.1611 -0.22555,0.1611 z m 11.78036,-9.214864 c -0.36247,0 -0.66857,-0.118001 -0.91827,-0.354419 -0.23359,-0.246884 -0.35441,-0.552973 -0.35441,-0.918265 0,-0.375763 0.12086,-0.68185 0.35441,-0.918264 0.23763,-0.236412 0.54372,-0.354417 0.91827,-0.354417 0.37858,0 0.68467,0.118 0.91826,0.354417 0.23763,0.236414 0.35443,0.542501 0.35443,0.918264 0,0.365292 -0.12086,0.671381 -0.37053,0.918265 -0.2336,0.236413 -0.53566,0.354419 -0.90216,0.354419 z m -0.9666,9.214864 c -0.0524,0 -0.10061,-0.0161 -0.14491,-0.04833 -0.0323,-0.04309 -0.0484,-0.09142 -0.0484,-0.144989 V 17.18925 c 0,-0.05357 0.0161,-0.09666 0.0484,-0.128884 0.0443,-0.04309 0.0926,-0.06443 0.14491,-0.06443 h 1.88486 c 0.0563,0 0.0967,0.02134 0.12893,0.06443 0.0443,0.03223 0.0644,0.07532 0.0644,0.128884 v 7.909963 c 0,0.05357 -0.0201,0.101895 -0.0644,0.144989 -0.0323,0.03223 -0.0725,0.04833 -0.12893,0.04833 z m 7.1528,0.112765 c -0.72091,0 -1.3492,-0.101896 -1.88486,-0.306089 -0.53968,-0.204192 -0.95854,-0.488532 -1.25657,-0.853824 -0.28998,-0.365292 -0.43497,-0.778512 -0.43497,-1.240463 v -0.161094 c 0,-0.05357 0.0161,-0.09666 0.0482,-0.128884 0.0403,-0.04309 0.0886,-0.06443 0.14492,-0.06443 h 1.7882 c 0.0524,0 0.0967,0.02134 0.12893,0.06443 0.0403,0.03222 0.0644,0.07532 0.0644,0.128884 v 0.0161 c 0,0.236412 0.12893,0.440203 0.38663,0.612176 0.26582,0.161099 0.6001,0.241649 0.99882,0.241649 0.36247,0 0.6605,-0.06967 0.88604,-0.20943 0.22555,-0.150225 0.33831,-0.333071 0.33831,-0.547736 0,-0.193319 -0.0967,-0.338308 -0.28998,-0.434967 -0.19332,-0.09666 -0.51149,-0.198555 -0.95047,-0.306088 -0.50747,-0.128884 -0.90216,-0.252523 -1.19214,-0.370528 -0.6887,-0.236413 -1.23643,-0.526391 -1.64321,-0.869935 -0.41081,-0.343545 -0.61218,-0.837715 -0.61218,-1.482112 0,-0.794621 0.3061,-1.422907 0.91826,-1.884858 0.62024,-0.472423 1.44184,-0.708835 2.46482,-0.708835 0.68467,0 1.2888,0.112764 1.8043,0.338308 0.51552,0.214665 0.91021,0.520752 1.19214,0.918264 0.28998,0.397511 0.43497,0.848589 0.43497,1.353232 0,0.05357 -0.0242,0.101896 -0.0644,0.144989 -0.0323,0.03222 -0.0766,0.04833 -0.12893,0.04833 h -1.72377 c -0.0563,0 -0.10472,-0.01611 -0.14491,-0.04833 -0.0323,-0.04309 -0.0482,-0.09142 -0.0482,-0.144989 0,-0.236414 -0.12482,-0.434967 -0.37052,-0.596067 -0.23763,-0.161099 -0.5558,-0.241649 -0.95049,-0.241649 -0.35441,0 -0.64439,0.06443 -0.86993,0.193319 -0.22553,0.128884 -0.33831,0.306089 -0.33831,0.531627 0,0.214664 0.10472,0.375764 0.3222,0.483297 0.22554,0.107528 0.59606,0.220303 1.11158,0.338308 0.11676,0.03223 0.2497,0.06967 0.40275,0.112764 0.14902,0.03223 0.31011,0.07532 0.48329,0.128884 0.76119,0.225539 1.36129,0.515518 1.80431,0.869935 0.439,0.354419 0.66051,0.869935 0.66051,1.546551 0,0.794621 -0.31817,1.417672 -0.95049,1.868749 -0.62425,0.440204 -1.466,0.660507 -2.52925,0.660507 z m 12.11465,-5.10684 c 0.0644,0.407983 0.0846,0.864698 0.0644,1.369341 -0.0122,0.128885 -0.0805,0.193319 -0.20942,0.193319 h -4.97796 c -0.0644,0 -0.0886,0.02699 -0.0644,0.08055 0.0323,0.214664 0.0886,0.429731 0.1772,0.644395 0.2779,0.601303 0.84577,0.902155 1.70766,0.902155 0.68466,-0.01081 1.22838,-0.289978 1.62709,-0.837714 0.0403,-0.06444 0.0886,-0.09666 0.14506,-0.09666 0.0323,0 0.0685,0.02134 0.1128,0.06443 l 1.15991,1.143804 c 0.0524,0.05357 0.0805,0.101895 0.0805,0.144989 0,0.02134 -0.0242,0.06443 -0.0644,0.128884 -0.35441,0.440202 -0.81355,0.784148 -1.36933,1.031033 -0.55982,0.236413 -1.172,0.354418 -1.83653,0.354418 -0.92632,0 -1.70765,-0.209429 -2.35205,-0.628287 -0.63634,-0.418856 -1.09145,-1.004049 -1.36934,-1.755978 -0.22554,-0.536863 -0.33831,-1.240463 -0.33831,-2.110398 0,-0.590831 0.0805,-1.111584 0.24165,-1.56266 0.24567,-0.762403 0.67662,-1.369343 1.2888,-1.82042 0.62022,-0.451077 1.35725,-0.676616 2.20705,-0.676616 1.0713,0 1.93318,0.311324 2.57759,0.934374 0.65244,0.623051 1.05117,1.455128 1.19212,2.497035 z m -3.75361,-1.465996 c -0.67662,0 -1.12367,0.316962 -1.33713,0.950483 -0.0443,0.139753 -0.0805,0.311324 -0.11279,0.515517 0,0.05357 0.0242,0.08056 0.0805,0.08056 h 2.78702 c 0.0644,0 0.0846,-0.02699 0.0644,-0.08056 -0.0563,-0.311324 -0.0805,-0.461951 -0.0805,-0.451076 -0.0967,-0.322199 -0.26984,-0.569084 -0.51552,-0.741057 -0.23761,-0.182444 -0.53162,-0.273867 -0.88604,-0.273867 z m 16.39989,-3.060883 c 0,0.05357 -0.0201,0.101896 -0.0644,0.14499 -0.0323,0.03223 -0.0766,0.04833 -0.12893,0.04833 h -5.26794 c -0.0524,0 -0.0805,0.02699 -0.0805,0.08056 v 2.497035 c 0,0.05357 0.0282,0.08056 0.0805,0.08056 h 3.46362 c 0.0524,0 0.0967,0.02134 0.12893,0.06443 0.0443,0.03223 0.0644,0.07532 0.0644,0.128884 v 1.562662 c 0,0.05357 -0.0201,0.101895 -0.0644,0.144989 -0.0323,0.03223 -0.0766,0.04833 -0.12893,0.04833 h -3.46362 c -0.0524,0 -0.0805,0.02699 -0.0805,0.08056 v 4.446332 c 0,0.05357 -0.0201,0.101896 -0.0644,0.144989 -0.0323,0.03223 -0.0766,0.04833 -0.12893,0.04833 h -1.88486 c -0.0524,0 -0.10062,-0.0161 -0.14491,-0.04833 -0.0323,-0.04309 -0.0484,-0.09142 -0.0484,-0.144989 V 14.208934 c 0,-0.05357 0.0161,-0.09666 0.0484,-0.128884 0.0443,-0.04309 0.0926,-0.06443 0.14491,-0.06443 h 7.42667 c 0.0524,0 0.0967,0.02134 0.12893,0.06443 0.0443,0.03222 0.0644,0.07532 0.0644,0.128884 z m 5.3082,1.433782 c 0,-0.05357 0.0161,-0.09666 0.0482,-0.128884 0.0403,-0.04309 0.0886,-0.06443 0.14507,-0.06443 h 1.88486 c 0.0524,0 0.0967,0.02134 0.12893,0.06443 0.0403,0.03223 0.0644,0.07532 0.0644,0.128884 v 7.893852 c 0,0.05357 -0.0242,0.101896 -0.0644,0.144989 -0.0323,0.03222 -0.0766,0.04833 -0.12893,0.04833 h -1.88486 c -0.0563,0 -0.10473,-0.01611 -0.14507,-0.04833 -0.0323,-0.04309 -0.0482,-0.09142 -0.0482,-0.144989 v -0.547736 c 0,-0.03223 -0.0122,-0.04833 -0.0323,-0.04833 -0.0242,-0.01081 -0.0443,0 -0.0644,0.03223 -0.43093,0.579957 -1.09546,0.869935 -1.99762,0.869935 -0.81757,0 -1.49017,-0.246885 -2.01375,-0.741055 -0.52759,-0.494172 -0.78938,-1.186897 -0.78938,-2.078179 v -5.380712 c 0,-0.05357 0.0161,-0.09666 0.0484,-0.128885 0.0403,-0.04309 0.0886,-0.06443 0.14491,-0.06443 h 1.86876 c 0.0524,0 0.0967,0.02134 0.12893,0.06443 0.0403,0.03223 0.0644,0.07532 0.0644,0.128885 v 4.816857 c 0,0.429731 0.11279,0.77851 0.3383,1.047142 0.2336,0.268633 0.55579,0.402749 0.9666,0.402749 0.36246,0 0.66453,-0.107528 0.90214,-0.322199 0.2336,-0.225539 0.37859,-0.515517 0.43497,-0.869934 z m 7.24544,8.199941 c -0.7169,0 -1.34518,-0.101895 -1.88486,-0.306089 -0.53566,-0.204192 -0.95451,-0.488532 -1.25657,-0.853824 -0.28998,-0.365292 -0.43497,-0.778511 -0.43497,-1.240463 v -0.161098 c 0,-0.05357 0.0161,-0.09666 0.0484,-0.128884 0.0443,-0.04309 0.0925,-0.06443 0.14492,-0.06443 h 1.7882 c 0.0563,0 0.0967,0.02134 0.12893,0.06443 0.0443,0.03222 0.0644,0.07532 0.0644,0.128884 v 0.0161 c 0,0.236412 0.12893,0.440203 0.38664,0.612176 0.26984,0.161099 0.60412,0.241649 0.99882,0.241649 0.3665,0 0.6605,-0.06967 0.88604,-0.20943 0.22554,-0.150225 0.33831,-0.333071 0.33831,-0.547736 0,-0.193319 -0.0967,-0.338308 -0.28998,-0.434967 -0.19332,-0.09666 -0.50747,-0.198555 -0.95049,-0.306088 -0.50343,-0.128884 -0.90214,-0.252523 -1.19212,-0.370528 -0.68468,-0.236413 -1.23242,-0.526391 -1.64321,-0.869935 -0.40678,-0.343545 -0.61218,-0.837715 -0.61218,-1.482112 0,-0.794621 0.30608,-1.422907 0.91826,-1.884858 0.62425,-0.472423 1.44586,-0.708835 2.46482,-0.708835 0.6887,0 1.28879,0.112764 1.8043,0.338308 0.51552,0.214665 0.91425,0.520752 1.19214,0.918264 0.28998,0.397511 0.43497,0.848589 0.43497,1.353232 0,0.05357 -0.0201,0.101896 -0.0644,0.144989 -0.0323,0.03222 -0.0725,0.04833 -0.12893,0.04833 h -1.72377 c -0.0524,0 -0.10061,-0.01611 -0.14491,-0.04833 -0.0323,-0.04309 -0.0484,-0.09142 -0.0484,-0.144989 0,-0.236414 -0.12086,-0.434967 -0.37051,-0.596067 -0.2336,-0.161099 -0.55177,-0.241649 -0.95049,-0.241649 -0.35442,0 -0.64439,0.06443 -0.86994,0.193319 -0.22554,0.128884 -0.33831,0.306089 -0.33831,0.531627 0,0.214664 0.10869,0.375764 0.32221,0.483297 0.22553,0.107528 0.59606,0.220303 1.11158,0.338308 0.12086,0.03223 0.25372,0.06967 0.40274,0.112764 0.15304,0.03223 0.31414,0.07532 0.4833,0.128884 0.76522,0.225539 1.36532,0.515518 1.8043,0.869935 0.44302,0.354419 0.66052,0.869935 0.66052,1.546551 0,0.794621 -0.31416,1.417672 -0.95049,1.868749 -0.62024,0.440204 -1.466,0.660507 -2.52925,0.660507 z m 6.00898,-9.327633 c -0.36246,0 -0.66856,-0.118001 -0.91826,-0.354419 -0.2336,-0.246884 -0.35441,-0.552973 -0.35441,-0.918265 0,-0.375763 0.12086,-0.68185 0.35441,-0.918264 0.23763,-0.236412 0.54371,-0.354417 0.91826,-0.354417 0.37859,0 0.68467,0.118 0.91827,0.354417 0.23763,0.236414 0.35443,0.542501 0.35443,0.918264 0,0.365292 -0.12087,0.671381 -0.37054,0.918265 -0.23359,0.236413 -0.53566,0.354419 -0.90216,0.354419 z m -0.96659,9.214863 c -0.0524,0 -0.10062,-0.01611 -0.14506,-0.04833 -0.0323,-0.04309 -0.0484,-0.09142 -0.0484,-0.144989 V 17.18925 c 0,-0.05357 0.0161,-0.09666 0.0484,-0.128884 0.0443,-0.04309 0.0927,-0.06443 0.14506,-0.06443 h 1.88486 c 0.0563,0 0.0967,0.02134 0.12893,0.06443 0.0443,0.03223 0.0644,0.07532 0.0644,0.128884 v 7.909961 c 0,0.05357 -0.0201,0.101896 -0.0644,0.144989 -0.0323,0.03222 -0.0725,0.04833 -0.12893,0.04833 z m 7.50723,0.128884 c -0.90216,0 -1.67544,-0.236412 -2.31983,-0.708834 -0.64441,-0.472424 -1.08743,-1.11682 -1.32102,-1.93319 -0.15304,-0.504643 -0.22553,-1.05238 -0.22553,-1.643211 0,-0.633521 0.0725,-1.203006 0.22553,-1.707649 0.24568,-0.794621 0.69273,-1.417671 1.33712,-1.868749 0.6444,-0.451077 1.41767,-0.676616 2.31983,-0.676616 0.87799,0 1.63112,0.225539 2.25539,0.676616 0.62022,0.440204 1.06325,1.058019 1.32101,1.85264 0.16914,0.536861 0.25775,1.100709 0.25775,1.69154 0,0.579956 -0.0766,1.122456 -0.22553,1.627099 -0.23763,0.837716 -0.67661,1.498222 -1.32102,1.98152 -0.63634,0.472422 -1.40156,0.708834 -2.3037,0.708834 z m 0,-1.949297 c 0.35441,0 0.65244,-0.107528 0.90214,-0.322199 0.24568,-0.214665 0.42288,-0.510281 0.53163,-0.886044 0.0846,-0.343544 0.12893,-0.719711 0.12893,-1.127695 0,-0.451076 -0.0443,-0.832478 -0.12893,-1.143802 -0.12087,-0.365292 -0.30207,-0.649632 -0.54774,-0.853825 -0.2497,-0.204193 -0.54773,-0.306088 -0.90215,-0.306088 -0.3665,0 -0.67259,0.101896 -0.91827,0.306088 -0.23761,0.204193 -0.41079,0.488533 -0.51551,0.853825 -0.0886,0.257758 -0.12893,0.63916 -0.12893,1.143802 0,0.483297 0.0362,0.859062 0.1128,1.127695 0.10473,0.375763 0.28192,0.671379 0.53163,0.886044 0.25776,0.214665 0.56787,0.322199 0.93438,0.322199 z m 9.62566,-6.588952 c 0.86188,0 1.5546,0.262994 2.07818,0.789386 0.52759,0.526391 0.78938,1.240462 0.78938,2.142617 v 5.284049 c 0,0.05357 -0.0201,0.101896 -0.0644,0.144989 -0.0323,0.03223 -0.0725,0.04833 -0.12893,0.04833 h -1.88486 c -0.0524,0 -0.10062,-0.0161 -0.14491,-0.04833 -0.0323,-0.04309 -0.0484,-0.09142 -0.0484,-0.144989 v -4.816866 c 0,-0.429733 -0.12086,-0.778512 -0.37053,-1.047144 -0.23358,-0.268633 -0.55177,-0.402747 -0.95048,-0.402747 -0.39469,0 -0.71689,0.13412 -0.96659,0.402747 -0.2336,0.268632 -0.35443,0.617411 -0.35443,1.047144 v 4.816862 c 0,0.05357 -0.0201,0.101895 -0.0644,0.144989 -0.0323,0.03223 -0.0725,0.04833 -0.12893,0.04833 h -1.88486 c -0.0524,0 -0.10061,-0.0161 -0.14491,-0.04833 -0.0323,-0.04309 -0.0484,-0.09142 -0.0484,-0.144989 v -7.893854 c 0,-0.05357 0.0161,-0.09666 0.0484,-0.128884 0.0443,-0.04309 0.0927,-0.06443 0.14491,-0.06443 h 1.88486 c 0.0563,0 0.0967,0.02134 0.12893,0.06443 0.0443,0.03223 0.0644,0.07532 0.0644,0.128884 v 0.563847 c 0,0.03223 0.0122,0.05357 0.0323,0.06443 0.0242,0.01081 0.0403,0.0052 0.0484,-0.0161 0.44302,-0.623051 1.09548,-0.934375 1.96541,-0.934375 z"
       fill="#000000"
       id="path43"
       style="stroke-width:0.402747" />
    <path
       d="m 3.8909317,67.438907 c 4.019021,0 7.2760423,-3.25755 7.2760423,-7.276041 V 46.13995 c 0,-4.018492 -3.2570213,-7.276042 -7.2760423,-7.276042 H -61.990317 c -4.019021,0 -7.276042,3.25755 -7.276042,7.276042 v 14.022916 c 0,4.018491 3.257021,7.276041 7.276042,7.276041 z"
       fill="#fae3b8"
       stroke="#ff9b04"
       stroke-width="1.32292"
       id="path56" />
    <path
       d="m 25.586765,102.36391 c 4.019021,0 7.276042,-3.257553 7.276042,-7.276045 v -0.79375 c 0,-4.018491 -3.257021,-7.276041 -7.276042,-7.276041 h -65.881249 c -4.019021,0 -7.276042,3.25755 -7.276042,7.276041 v 0.79375 c 0,4.018492 3.257021,7.276045 7.276042,7.276045 z"
       fill="#ccfadb"
       stroke="#00f550"
       stroke-width="1.32292"
       id="path78" />
    <path
       d="m 25.586765,140.19933 c 4.019021,0 7.276042,-3.25756 7.276042,-7.27605 V 118.3712 c 0,-4.01849 -3.257021,-7.27604 -7.276042,-7.27604 h -65.881249 c -4.019021,0 -7.276042,3.25755 -7.276042,7.27604 v 14.55208 c 0,4.01849 3.257021,7.27605 7.276042,7.27605 z"
       fill="#fae3b8"
       stroke="#ff9b04"
       stroke-width="1.32292"
       id="path90" />
    <path
       d="m 25.322182,178.29932 c 4.01902,0 7.276041,-3.25702 7.276041,-7.27604 V 156.4712 c 0,-4.01849 -3.257021,-7.27604 -7.276041,-7.27604 h -65.88125 c -4.019021,0 -7.276041,3.25755 -7.276041,7.27604 v 14.55208 c 0,4.01902 3.25702,7.27604 7.276041,7.27604 z"
       fill="#fae3b8"
       stroke="#ff9b04"
       stroke-width="1.32292"
       id="path92" />
    <path
       d="m 25.586765,267.99307 c 4.019021,0 7.276042,-3.25702 7.276042,-7.27604 v -14.55208 c 0,-4.01902 -3.257021,-7.27604 -7.276042,-7.27604 h -65.881249 c -4.019021,0 -7.276042,3.25702 -7.276042,7.27604 v 14.55208 c 0,4.01902 3.257021,7.27604 7.276042,7.27604 z"
       fill="#fae3b8"
       stroke="#ff9b04"
       stroke-width="1.32292"
       id="path94" />
    <path
       d="m 25.586765,232.00974 c 4.019021,0 7.276042,-3.25702 7.276042,-7.27604 v -0.52917 c 0,-4.01902 -3.257021,-7.27604 -7.276042,-7.27604 h -65.881249 c -4.019021,0 -7.276042,3.25702 -7.276042,7.27604 v 0.52917 c 0,4.01902 3.257021,7.27604 7.276042,7.27604 z"
       fill="#ccfadb"
       stroke="#00f550"
       stroke-width="1.32292"
       id="path96" />
    <path
       d="m 98.876344,206.34516 c 4.019016,0 7.276036,-3.25702 7.276036,-7.27604 v -0.52917 c 0,-4.01902 -3.25702,-7.27604 -7.276036,-7.27604 H 12.093015 c -4.0190213,0 -7.2760413,3.25702 -7.2760413,7.27604 v 0.52917 c 0,4.01902 3.25702,7.27604 7.2760413,7.27604 z"
       fill="#fae3b8"
       stroke="#ff9b04"
       stroke-width="1.32292"
       id="path106" />
    <path
       d="m 95.436764,67.438907 c 4.01902,0 7.276036,-3.25755 7.276036,-7.276041 V 46.13995 c 0,-4.018492 -3.257016,-7.276042 -7.276036,-7.276042 H 28.232598 c -4.01902,0 -7.276041,3.25755 -7.276041,7.276042 v 14.022916 c 0,4.018491 3.257021,7.276041 7.276041,7.276041 z"
       fill="#fae3b8"
       stroke="#ff9b04"
       stroke-width="1.32292"
       id="path108" />
    <line
       x1="-28.9174"
       y1="75.508698"
       x2="69.507607"
       y2="75.508698"
       stroke="#000000"
       stroke-width="0.529167"
       id="line182" />
    <path
       d="m 69.319744,75.960343 c 0.10319,0.103452 0.27252,0.103452 0.37571,0 l 1.68275,-1.683809 c 0.10319,-0.103187 0.10319,-0.270933 0,-0.37412 -0.10319,-0.103452 -0.26988,-0.103452 -0.37306,0 l -1.49755,1.496748 -1.49754,-1.496748 c -0.10319,-0.103452 -0.26987,-0.103452 -0.37306,0 -0.10319,0.103187 -0.10319,0.270933 0,0.37412 z m -0.0767,-7.859977 v 7.672916 h 0.52917 v -7.672916 z"
       fill="#000000"
       id="path185"
       style="stroke-width:0.264583" />
    <path
       d="m -29.105255,75.960343 c 0.103187,0.103452 0.27252,0.103452 0.375708,0 l 1.68275,-1.683809 c 0.103188,-0.103187 0.103188,-0.270933 0,-0.37412 -0.103188,-0.103452 -0.269875,-0.103452 -0.373063,0 l -1.497541,1.496748 -1.497542,-1.496748 c -0.103187,-0.103452 -0.269875,-0.103452 -0.373062,0 -0.103188,0.103187 -0.103188,0.270933 0,0.37412 z m -0.07673,-7.859977 v 7.672916 h 0.529166 v -7.672916 z"
       fill="#000000"
       id="path186"
       style="stroke-width:0.264583" />
    <path
       d="m -7.4094223,86.543676 c 0.103187,0.103452 0.272521,0.103452 0.375708,0 l 1.68275,-1.683808 c 0.103188,-0.103188 0.103188,-0.270934 0,-0.374121 -0.103187,-0.103452 -0.269875,-0.103452 -0.373062,0 l -1.497542,1.496748 -1.497542,-1.496748 c -0.103187,-0.103452 -0.269875,-0.103452 -0.373062,0 -0.103188,0.103187 -0.103188,0.270933 0,0.374121 z m -0.07673,-10.770394 v 10.583334 h 0.529166 V 75.773282 Z"
       fill="#000000"
       id="path187"
       style="stroke-width:0.264583" />
    <path
       d="m -7.4094223,110.62076 c 0.103187,0.10345 0.272521,0.10345 0.375708,0 l 1.68275,-1.68381 c 0.103188,-0.10319 0.103188,-0.27093 0,-0.37412 -0.103187,-0.10345 -0.269875,-0.10345 -0.373062,0 l -1.497542,1.49675 -1.497542,-1.49675 c -0.103187,-0.10345 -0.269875,-0.10345 -0.373062,0 -0.103188,0.10319 -0.103188,0.27093 0,0.37412 z m -0.07673,-7.59539 v 7.40833 h 0.529166 v -7.40833 z"
       fill="#000000"
       id="path188"
       style="stroke-width:0.264583" />
    <path
       d="m -7.4094223,216.45489 c 0.103187,0.10318 0.272521,0.10318 0.375708,0 l 1.68275,-1.6854 c 0.103188,-0.10319 0.103188,-0.26987 0,-0.37306 -0.103187,-0.10319 -0.269875,-0.10319 -0.373062,0 l -1.497542,1.49754 -1.497542,-1.49754 c -0.103187,-0.10319 -0.269875,-0.10319 -0.373062,0 -0.103188,0.10319 -0.103188,0.26987 0,0.37306 z m -0.07673,-37.49411 v 37.30625 h 0.529166 v -37.30625 z"
       fill="#000000"
       id="path189"
       style="stroke-width:0.264583" />
    <path
       d="m -7.4094223,148.72076 c 0.103187,0.10345 0.272521,0.10345 0.375708,0 l 1.68275,-1.68381 c 0.103188,-0.10319 0.103188,-0.27093 0,-0.37412 -0.103187,-0.10345 -0.269875,-0.10345 -0.373062,0 l -1.497542,1.49675 -1.497542,-1.49675 c -0.103187,-0.10345 -0.269875,-0.10345 -0.373062,0 -0.103188,0.10319 -0.103188,0.27093 0,0.37412 z m -0.076729,-7.59539 v 7.40833 h 0.529166 v -7.40833 z"
       fill="#000000"
       id="path190"
       style="stroke-width:0.264583" />
    <path
       d="m -7.4094223,238.4153 c 0.103187,0.10319 0.272521,0.10319 0.375708,0 l 1.68275,-1.68539 c 0.103188,-0.10319 0.103188,-0.26988 0,-0.37307 -0.103187,-0.10318 -0.269875,-0.10318 -0.373062,0 l -1.497542,1.49755 -1.497542,-1.49755 c -0.103187,-0.10318 -0.269875,-0.10318 -0.373062,0 -0.103188,0.10319 -0.103188,0.26988 0,0.37307 z m -0.07673,-6.00868 v 5.82083 h 0.529166 v -5.82083 z"
       fill="#000000"
       id="path191"
       style="stroke-width:0.264583" />
    <path
       d="m 33.005682,219.3653 c -0.04233,0.14023 0.03704,0.2884 0.17727,0.33073 l 2.278063,0.69057 c 0.140229,0.0423 0.288396,-0.037 0.330729,-0.17463 0.04233,-0.14023 -0.03704,-0.2884 -0.177271,-0.33073 l -2.024062,-0.61648 0.613833,-2.02406 c 0.04233,-0.14023 -0.03704,-0.2884 -0.174625,-0.33073 -0.140229,-0.0423 -0.288396,0.037 -0.330729,0.17727 z m 23.412978,-12.59152 -23.283333,12.43542 0.248709,0.46567 23.283333,-12.43542 z"
       fill="#000000"
       id="path192"
       style="stroke-width:0.264583" />
    <text
       xml:space="preserve"
       transform="matrix(0.26458333,0,0,0.26458333,0.68739771,0)"
       id="text4"
       style="font-style:normal;font-variant:normal;font-weight:normal;font-stretch:normal;font-size:32px;font-family:'Liberation Sans';-inkscape-font-specification:'Liberation Sans';text-align:center;writing-mode:lr-tb;direction:ltr;white-space:pre;shape-inside:url(#rect4);display:inline;fill:#000000;fill-opacity:1;stroke:none;stroke-width:3.77953;stroke-linejoin:round;stroke-miterlimit:3.1;stroke-dasharray:none"><tspan
         x="-132.53418"
         y="465.29484"
         id="tspan5"><tspan
           style="font-weight:bold"
           id="tspan4">Contiguous + </tspan></tspan><tspan
         x="-96.573242"
         y="505.29484"
         id="tspan7"><tspan
           style="font-weight:bold"
           id="tspan6">Reshape</tspan></tspan></text>
    <text
       xml:space="preserve"
       transform="matrix(0.26458333,0,0,0.26458333,0.68739771,0.34369885)"
       id="text5"
       style="font-style:normal;font-variant:normal;font-weight:normal;font-stretch:normal;font-size:32px;font-family:'Liberation Sans';-inkscape-font-specification:'Liberation Sans';text-align:center;writing-mode:lr-tb;direction:ltr;white-space:pre;shape-inside:url(#rect5);display:inline;fill:#000000;fill-opacity:1;stroke:none;stroke-width:3.77953;stroke-linejoin:round;stroke-miterlimit:3.1;stroke-dasharray:none"><tspan
         x="-154.97461"
         y="608.18742"
         id="tspan9"><tspan
           style="font-weight:bold"
           id="tspan8">Fused Reduce + </tspan></tspan><tspan
         x="-134.08398"
         y="648.18742"
         id="tspan11"><tspan
           style="font-weight:bold"
           id="tspan10">Element-wise</tspan></tspan></text>
    <text
       xml:space="preserve"
       transform="matrix(0.26458333,0,0,0.26458333,-0.34369889,1.3747954)"
       id="text6"
       style="font-style:normal;font-variant:normal;font-weight:normal;font-stretch:normal;font-size:32px;font-family:'Liberation Sans';-inkscape-font-specification:'Liberation Sans';text-align:center;writing-mode:lr-tb;direction:ltr;white-space:pre;shape-inside:url(#rect6);display:inline;fill:#000000;fill-opacity:1;stroke:none;stroke-width:3.77953;stroke-linejoin:round;stroke-miterlimit:3.1;stroke-dasharray:none"><tspan
         x="35.107422"
         y="754.97649"
         id="tspan13"><tspan
           style="font-weight:bold"
           id="tspan12">Transformed Weights 2</tspan></tspan></text>
    <text
       xml:space="preserve"
       transform="matrix(0.26458333,0,0,0.26458333,0.34369885,1.0310966)"
       id="text7"
       style="font-style:normal;font-variant:normal;font-weight:normal;font-stretch:normal;font-size:32px;font-family:'Liberation Sans';-inkscape-font-specification:'Liberation Sans';text-align:center;writing-mode:lr-tb;direction:ltr;white-space:pre;shape-inside:url(#rect7);display:inline;fill:#000000;fill-opacity:1;stroke:none;stroke-width:3.77953;stroke-linejoin:round;stroke-miterlimit:3.1;stroke-dasharray:none"><tspan
         x="-92.995117"
         y="363.97063"
         id="tspan15"><tspan
           style="font-weight:bold"
           id="tspan14">GEMM 1</tspan></tspan></text>
    <text
       xml:space="preserve"
       transform="matrix(0.26458333,0,0,0.26458333,1.3747954,0.68739771)"
       id="text8"
       style="font-style:normal;font-variant:normal;font-weight:normal;font-stretch:normal;font-size:32px;font-family:'Liberation Sans';-inkscape-font-specification:'Liberation Sans';text-align:center;writing-mode:lr-tb;direction:ltr;white-space:pre;shape-inside:url(#rect8);display:inline;fill:#000000;fill-opacity:1;stroke:none;stroke-width:3.77953;stroke-linejoin:round;stroke-miterlimit:3.1;stroke-dasharray:none"><tspan
         x="-93.644531"
         y="856.29875"
         id="tspan17"><tspan
           style="font-weight:bold"
           id="tspan16">GEMM 2</tspan></tspan></text>
    <text
       xml:space="preserve"
       transform="matrix(0.26458333,0,0,0.26458333,0.34369885,1.3747954)"
       id="text9"
       style="font-style:normal;font-variant:normal;font-weight:normal;font-stretch:normal;font-size:32px;font-family:'Liberation Sans';-inkscape-font-specification:'Liberation Sans';text-align:center;writing-mode:lr-tb;direction:ltr;white-space:pre;shape-inside:url(#rect9);display:inline;fill:#000000;fill-opacity:1;stroke:none;stroke-width:3.77953;stroke-linejoin:round;stroke-miterlimit:3.1;stroke-dasharray:none"><tspan
         x="-132.13477"
         y="943.33391"
         id="tspan19"><tspan
           style="font-weight:bold"
           id="tspan18">Element-wise </tspan></tspan><tspan
         x="-85.869141"
         y="983.33391"
         id="tspan21"><tspan
           style="font-weight:bold"
           id="tspan20">Module</tspan></tspan></text>
    <text
       xml:space="preserve"
       transform="matrix(0.26458333,0,0,0.26458333,0.97212716,0.48606358)"
       id="text10"
       style="font-style:normal;font-variant:normal;font-weight:normal;font-stretch:normal;font-size:32px;font-family:'Liberation Sans';-inkscape-font-specification:'Liberation Sans';text-align:center;writing-mode:lr-tb;direction:ltr;white-space:pre;shape-inside:url(#rect10);display:inline;fill:#000000;fill-opacity:1;stroke:none;stroke-width:3.77953;stroke-linejoin:round;stroke-miterlimit:3.1;stroke-dasharray:none"><tspan
         x="137.31543"
         y="188.65031"
         id="tspan23"><tspan
           style="font-weight:bold"
           id="tspan22">Transformed </tspan></tspan><tspan
         x="158.95605"
         y="228.65031"
         id="tspan25"><tspan
           style="font-weight:bold"
           id="tspan24">Weights 1</tspan></tspan></text>
    <text
       xml:space="preserve"
       transform="matrix(0.26458333,0,0,0.26458333,0.24303179,-0.72909537)"
       id="text11"
       style="font-style:normal;font-variant:normal;font-weight:normal;font-stretch:normal;font-size:32px;font-family:'Liberation Sans';-inkscape-font-specification:'Liberation Sans';text-align:center;writing-mode:lr-tb;direction:ltr;white-space:pre;shape-inside:url(#rect11);display:inline;fill:#000000;fill-opacity:1;stroke:none;stroke-width:3.77953;stroke-linejoin:round;stroke-miterlimit:3.1;stroke-dasharray:none"><tspan
         x="-210.35449"
         y="193.24406"
         id="tspan27"><tspan
           style="font-weight:bold"
           id="tspan26">Transformed </tspan></tspan><tspan
         x="-199.68262"
         y="233.24406"
         id="tspan29"><tspan
           style="font-weight:bold"
           id="tspan28">Activations</tspan></tspan></text>
  </g>
  <g
     id="layer2"
     transform="translate(79.98198,-9.6437925)">
    <path
       style="fill:none;fill-opacity:0.780392;stroke:#000000;stroke-width:2;stroke-linejoin:round;stroke-miterlimit:3.1;stroke-dasharray:none;marker-end:url(#Triangle)"
       d="m 115.48281,143.66612 h 25.77742"
       id="path2" />
    <g
       id="g12"
       transform="translate(2.7495908,0.34369885)">
      <path
         d="m 226.27522,155.45777 c 4.02623,0 7.2891,-2.58126 7.2891,-5.76547 v -11.53092 c 0,-3.18421 -3.26287,-5.76546 -7.2891,-5.76546 h -65.9994 c -4.02623,0 -7.2891,2.58125 -7.2891,5.76546 v 11.53092 c 0,3.18421 3.26287,5.76547 7.2891,5.76547 z"
         fill="#fae3b8"
         stroke="#ff9b04"
         stroke-width="1.17867"
         id="path90-0"
         style="fill:#00ccff;stroke:#006680" />
      <text
         xml:space="preserve"
         transform="matrix(0.26458333,0,0,0.26458333,2.7495909,5.4991817)"
         id="text12"
         style="font-style:normal;font-variant:normal;font-weight:normal;font-stretch:normal;font-size:32px;font-family:'Liberation Sans';-inkscape-font-specification:'Liberation Sans';text-align:center;writing-mode:lr-tb;direction:ltr;white-space:pre;shape-inside:url(#rect12);display:inline;fill:#000000;fill-opacity:1;stroke:none;stroke-width:3.77953;stroke-linejoin:round;stroke-miterlimit:3.1;stroke-dasharray:none"><tspan
           x="598.45898"
           y="534.1425"
           id="tspan31"><tspan
             style="font-weight:bold"
             id="tspan30">Attention Kernel</tspan></tspan></text>
    </g>
  </g>
</svg>
